<svg id="visual" viewBox="0 0 1500 880" width="1500" height="880" xmlns="http://www.w3.org/2000/svg" xmlns:xlink="http://www.w3.org/1999/xlink" version="1.1"><path d="M0 98L83.3 87.7C166.7 77.3 333.3 56.7 500 44.8C666.7 33 833.3 30 1000 49.2C1166.7 68.3 1333.3 109.7 1416.7 130.3L1500 151L1500 0L1416.7 0C1333.3 0 1166.7 0 1000 0C833.3 0 666.7 0 500 0C333.3 0 166.7 0 83.3 0L0 0Z" fill="#6198ff"></path><path d="M0 151L83.3 140.7C166.7 130.3 333.3 109.7 500 93.5C666.7 77.3 833.3 65.7 1000 84.7C1166.7 103.7 1333.3 153.3 1416.7 178.2L1500 203L1500 149L1416.7 128.3C1333.3 107.7 1166.7 66.3 1000 47.2C833.3 28 666.7 31 500 42.8C333.3 54.7 166.7 75.3 83.3 85.7L0 96Z" fill="#377dff"></path><path d="M0 203L83.3 185.5C166.7 168 333.3 133 500 117C666.7 101 833.3 104 1000 131.8C1166.7 159.7 1333.3 212.3 1416.7 238.7L1500 265L1500 201L1416.7 176.2C1333.3 151.3 1166.7 101.7 1000 82.7C833.3 63.7 666.7 75.3 500 91.5C333.3 107.7 166.7 128.3 83.3 138.7L0 149Z" fill="#0063f7"></path><path d="M0 283L83.3 252.2C166.7 221.3 333.3 159.7 500 145C666.7 130.3 833.3 162.7 1000 203.7C1166.7 244.7 1333.3 294.3 1416.7 319.2L1500 344L1500 263L1416.7 236.7C1333.3 210.3 1166.7 157.7 1000 129.8C833.3 102 666.7 99 500 115C333.3 131 166.7 166 83.3 183.5L0 201Z" fill="#0055d1"></path><path d="M0 344L83.3 320.5C166.7 297 333.3 250 500 225.2C666.7 200.3 833.3 197.7 1000 231.5C1166.7 265.3 1333.3 335.7 1416.7 370.8L1500 406L1500 342L1416.7 317.2C1333.3 292.3 1166.7 242.7 1000 201.7C833.3 160.7 666.7 128.3 500 143C333.3 157.7 166.7 219.3 83.3 250.2L0 281Z" fill="#004cbb"></path><path d="M0 529L83.3 514.3C166.7 499.7 333.3 470.3 500 419C666.7 367.7 833.3 294.3 1000 329.5C1166.7 364.7 1333.3 508.3 1416.7 580.2L1500 652L1500 404L1416.7 368.8C1333.3 333.7 1166.7 263.3 1000 229.5C833.3 195.7 666.7 198.3 500 223.2C333.3 248 166.7 295 83.3 318.5L0 342Z" fill="#004cbb"></path><path d="M0 599L83.3 609.3C166.7 619.7 333.3 640.3 500 587.7C666.7 535 833.3 409 1000 419.3C1166.7 429.7 1333.3 576.3 1416.7 649.7L1500 723L1500 650L1416.7 578.2C1333.3 506.3 1166.7 362.7 1000 327.5C833.3 292.3 666.7 365.7 500 417C333.3 468.3 166.7 497.7 83.3 512.3L0 527Z" fill="#0055d1"></path><path d="M0 652L83.3 653.5C166.7 655 333.3 658 500 597.8C666.7 537.7 833.3 414.3 1000 430.5C1166.7 446.7 1333.3 602.3 1416.7 680.2L1500 758L1500 721L1416.7 647.7C1333.3 574.3 1166.7 427.7 1000 417.3C833.3 407 666.7 533 500 585.7C333.3 638.3 166.7 617.7 83.3 607.3L0 597Z" fill="#0063f7"></path><path d="M0 740L83.3 735.7C166.7 731.3 333.3 722.7 500 655.2C666.7 587.7 833.3 461.3 1000 473C1166.7 484.7 1333.3 634.3 1416.7 709.2L1500 784L1500 756L1416.7 678.2C1333.3 600.3 1166.7 444.7 1000 428.5C833.3 412.3 666.7 535.7 500 595.8C333.3 656 166.7 653 83.3 651.5L0 650Z" fill="#377dff"></path><path d="M0 881L83.3 881C166.7 881 333.3 881 500 881C666.7 881 833.3 881 1000 881C1166.7 881 1333.3 881 1416.7 881L1500 881L1500 782L1416.7 707.2C1333.3 632.3 1166.7 482.7 1000 471C833.3 459.3 666.7 585.7 500 653.2C333.3 720.7 166.7 729.3 83.3 733.7L0 738Z" fill="#6198ff"></path></svg>