<svg id="visual" viewBox="0 0 1150 700" width="1150" height="700" xmlns="http://www.w3.org/2000/svg" xmlns:xlink="http://www.w3.org/1999/xlink" version="1.1"><rect x="0" y="0" width="1150" height="700" fill="#FFFFFF"></rect><path d="M0 114L17.5 108.3C35 102.7 70 91.3 104.8 86.8C139.7 82.3 174.3 84.7 209.2 89.8C244 95 279 103 313.8 103.2C348.7 103.3 383.3 95.7 418.2 93.2C453 90.7 488 93.3 522.8 92.8C557.7 92.3 592.3 88.7 627.2 89.5C662 90.3 697 95.7 731.8 95.8C766.7 96 801.3 91 836.2 87.5C871 84 906 82 940.8 84.7C975.7 87.3 1010.3 94.7 1045.2 92C1080 89.3 1115 76.7 1132.5 70.3L1150 64L1150 0L1132.5 0C1115 0 1080 0 1045.2 0C1010.3 0 975.7 0 940.8 0C906 0 871 0 836.2 0C801.3 0 766.7 0 731.8 0C697 0 662 0 627.2 0C592.3 0 557.7 0 522.8 0C488 0 453 0 418.2 0C383.3 0 348.7 0 313.8 0C279 0 244 0 209.2 0C174.3 0 139.7 0 104.8 0C70 0 35 0 17.5 0L0 0Z" fill="#11115d"></path><path d="M0 92L17.5 88C35 84 70 76 104.8 73.8C139.7 71.7 174.3 75.3 209.2 73.7C244 72 279 65 313.8 65.7C348.7 66.3 383.3 74.7 418.2 77.3C453 80 488 77 522.8 75.5C557.7 74 592.3 74 627.2 72.7C662 71.3 697 68.7 731.8 69.5C766.7 70.3 801.3 74.7 836.2 79.3C871 84 906 89 940.8 86C975.7 83 1010.3 72 1045.2 65.7C1080 59.3 1115 57.7 1132.5 56.8L1150 56L1150 0L1132.5 0C1115 0 1080 0 1045.2 0C1010.3 0 975.7 0 940.8 0C906 0 871 0 836.2 0C801.3 0 766.7 0 731.8 0C697 0 662 0 627.2 0C592.3 0 557.7 0 522.8 0C488 0 453 0 418.2 0C383.3 0 348.7 0 313.8 0C279 0 244 0 209.2 0C174.3 0 139.7 0 104.8 0C70 0 35 0 17.5 0L0 0Z" fill="#18136e"></path><path d="M0 30L17.5 33.3C35 36.7 70 43.3 104.8 44.5C139.7 45.7 174.3 41.3 209.2 43.5C244 45.7 279 54.3 313.8 54.2C348.7 54 383.3 45 418.2 44C453 43 488 50 522.8 50C557.7 50 592.3 43 627.2 41.8C662 40.7 697 45.3 731.8 44.5C766.7 43.7 801.3 37.3 836.2 35.3C871 33.3 906 35.7 940.8 35.8C975.7 36 1010.3 34 1045.2 39.2C1080 44.3 1115 56.7 1132.5 62.8L1150 69L1150 0L1132.5 0C1115 0 1080 0 1045.2 0C1010.3 0 975.7 0 940.8 0C906 0 871 0 836.2 0C801.3 0 766.7 0 731.8 0C697 0 662 0 627.2 0C592.3 0 557.7 0 522.8 0C488 0 453 0 418.2 0C383.3 0 348.7 0 313.8 0C279 0 244 0 209.2 0C174.3 0 139.7 0 104.8 0C70 0 35 0 17.5 0L0 0Z" fill="#21157e"></path><path d="M0 15L17.5 18.7C35 22.3 70 29.7 104.8 34C139.7 38.3 174.3 39.7 209.2 40.5C244 41.3 279 41.7 313.8 36.7C348.7 31.7 383.3 21.3 418.2 18.5C453 15.7 488 20.3 522.8 24.8C557.7 29.3 592.3 33.7 627.2 34.7C662 35.7 697 33.3 731.8 29C766.7 24.7 801.3 18.3 836.2 18.8C871 19.3 906 26.7 940.8 29.2C975.7 31.7 1010.3 29.3 1045.2 30.7C1080 32 1115 37 1132.5 39.5L1150 42L1150 0L1132.5 0C1115 0 1080 0 1045.2 0C1010.3 0 975.7 0 940.8 0C906 0 871 0 836.2 0C801.3 0 766.7 0 731.8 0C697 0 662 0 627.2 0C592.3 0 557.7 0 522.8 0C488 0 453 0 418.2 0C383.3 0 348.7 0 313.8 0C279 0 244 0 209.2 0C174.3 0 139.7 0 104.8 0C70 0 35 0 17.5 0L0 0Z" fill="#2b158f"></path></svg>