<svg id="visual" viewBox="0 0 1150 700" width="1150" height="700" xmlns="http://www.w3.org/2000/svg" xmlns:xlink="http://www.w3.org/1999/xlink" version="1.1"><rect x="0" y="0" width="1150" height="700" fill="#000000"></rect><path d="M0 584L17.5 589.7C35 595.3 70 606.7 104.8 611.2C139.7 615.7 174.3 613.3 209.2 608.2C244 603 279 595 313.8 594.8C348.7 594.7 383.3 602.3 418.2 604.8C453 607.3 488 604.7 522.8 605.2C557.7 605.7 592.3 609.3 627.2 608.5C662 607.7 697 602.3 731.8 602.2C766.7 602 801.3 607 836.2 610.5C871 614 906 616 940.8 613.3C975.7 610.7 1010.3 603.3 1045.2 606C1080 608.7 1115 621.3 1132.5 627.7L1150 634L1150 701L1132.5 701C1115 701 1080 701 1045.2 701C1010.3 701 975.7 701 940.8 701C906 701 871 701 836.2 701C801.3 701 766.7 701 731.8 701C697 701 662 701 627.2 701C592.3 701 557.7 701 522.8 701C488 701 453 701 418.2 701C383.3 701 348.7 701 313.8 701C279 701 244 701 209.2 701C174.3 701 139.7 701 104.8 701C70 701 35 701 17.5 701L0 701Z" fill="#11115d"></path><path d="M0 606L17.5 610C35 614 70 622 104.8 624.2C139.7 626.3 174.3 622.7 209.2 624.3C244 626 279 633 313.8 632.3C348.7 631.7 383.3 623.3 418.2 620.7C453 618 488 621 522.8 622.5C557.7 624 592.3 624 627.2 625.3C662 626.7 697 629.3 731.8 628.5C766.7 627.7 801.3 623.3 836.2 618.7C871 614 906 609 940.8 612C975.7 615 1010.3 626 1045.2 632.3C1080 638.7 1115 640.3 1132.5 641.2L1150 642L1150 701L1132.5 701C1115 701 1080 701 1045.2 701C1010.3 701 975.7 701 940.8 701C906 701 871 701 836.2 701C801.3 701 766.7 701 731.8 701C697 701 662 701 627.2 701C592.3 701 557.7 701 522.8 701C488 701 453 701 418.2 701C383.3 701 348.7 701 313.8 701C279 701 244 701 209.2 701C174.3 701 139.7 701 104.8 701C70 701 35 701 17.5 701L0 701Z" fill="#18136e"></path><path d="M0 668L17.5 664.7C35 661.3 70 654.7 104.8 653.5C139.7 652.3 174.3 656.7 209.2 654.5C244 652.3 279 643.7 313.8 643.8C348.7 644 383.3 653 418.2 654C453 655 488 648 522.8 648C557.7 648 592.3 655 627.2 656.2C662 657.3 697 652.7 731.8 653.5C766.7 654.3 801.3 660.7 836.2 662.7C871 664.7 906 662.3 940.8 662.2C975.7 662 1010.3 664 1045.2 658.8C1080 653.7 1115 641.3 1132.5 635.2L1150 629L1150 701L1132.5 701C1115 701 1080 701 1045.2 701C1010.3 701 975.7 701 940.8 701C906 701 871 701 836.2 701C801.3 701 766.7 701 731.8 701C697 701 662 701 627.2 701C592.3 701 557.7 701 522.8 701C488 701 453 701 418.2 701C383.3 701 348.7 701 313.8 701C279 701 244 701 209.2 701C174.3 701 139.7 701 104.8 701C70 701 35 701 17.5 701L0 701Z" fill="#21157e"></path><path d="M0 683L17.5 679.3C35 675.7 70 668.3 104.8 664C139.7 659.7 174.3 658.3 209.2 657.5C244 656.7 279 656.3 313.8 661.3C348.7 666.3 383.3 676.7 418.2 679.5C453 682.3 488 677.7 522.8 673.2C557.7 668.7 592.3 664.3 627.2 663.3C662 662.3 697 664.7 731.8 669C766.7 673.3 801.3 679.7 836.2 679.2C871 678.7 906 671.3 940.8 668.8C975.7 666.3 1010.3 668.7 1045.2 667.3C1080 666 1115 661 1132.5 658.5L1150 656L1150 701L1132.5 701C1115 701 1080 701 1045.2 701C1010.3 701 975.7 701 940.8 701C906 701 871 701 836.2 701C801.3 701 766.7 701 731.8 701C697 701 662 701 627.2 701C592.3 701 557.7 701 522.8 701C488 701 453 701 418.2 701C383.3 701 348.7 701 313.8 701C279 701 244 701 209.2 701C174.3 701 139.7 701 104.8 701C70 701 35 701 17.5 701L0 701Z" fill="#2b158f"></path></svg>