<svg id="visual" viewBox="0 0 1150 700" width="1150" height="700" xmlns="http://www.w3.org/2000/svg" xmlns:xlink="http://www.w3.org/1999/xlink" version="1.1"><rect x="0" y="0" width="1150" height="700" fill="#FFFFFF"></rect><path d="M0 194L17.5 192.5C35 191 70 188 104.8 192C139.7 196 174.3 207 209.2 222.2C244 237.3 279 256.7 313.8 268C348.7 279.3 383.3 282.7 418.2 285.3C453 288 488 290 522.8 285.7C557.7 281.3 592.3 270.7 627.2 267.8C662 265 697 270 731.8 267.3C766.7 264.7 801.3 254.3 836.2 242.8C871 231.3 906 218.7 940.8 213.5C975.7 208.3 1010.3 210.7 1045.2 219C1080 227.3 1115 241.7 1132.5 248.8L1150 256L1150 0L1132.5 0C1115 0 1080 0 1045.2 0C1010.3 0 975.7 0 940.8 0C906 0 871 0 836.2 0C801.3 0 766.7 0 731.8 0C697 0 662 0 627.2 0C592.3 0 557.7 0 522.8 0C488 0 453 0 418.2 0C383.3 0 348.7 0 313.8 0C279 0 244 0 209.2 0C174.3 0 139.7 0 104.8 0C70 0 35 0 17.5 0L0 0Z" fill="#000000"></path><path d="M0 247L17.5 243.5C35 240 70 233 104.8 221C139.7 209 174.3 192 209.2 190.2C244 188.3 279 201.7 313.8 214.8C348.7 228 383.3 241 418.2 234.8C453 228.7 488 203.3 522.8 202.5C557.7 201.7 592.3 225.3 627.2 222.5C662 219.7 697 190.3 731.8 184.7C766.7 179 801.3 197 836.2 210.8C871 224.7 906 234.3 940.8 232C975.7 229.7 1010.3 215.3 1045.2 207.3C1080 199.3 1115 197.7 1132.5 196.8L1150 196L1150 0L1132.5 0C1115 0 1080 0 1045.2 0C1010.3 0 975.7 0 940.8 0C906 0 871 0 836.2 0C801.3 0 766.7 0 731.8 0C697 0 662 0 627.2 0C592.3 0 557.7 0 522.8 0C488 0 453 0 418.2 0C383.3 0 348.7 0 313.8 0C279 0 244 0 209.2 0C174.3 0 139.7 0 104.8 0C70 0 35 0 17.5 0L0 0Z" fill="#00006f"></path><path d="M0 177L17.5 171.8C35 166.7 70 156.3 104.8 150.7C139.7 145 174.3 144 209.2 152.3C244 160.7 279 178.3 313.8 182.3C348.7 186.3 383.3 176.7 418.2 178.2C453 179.7 488 192.3 522.8 199.8C557.7 207.3 592.3 209.7 627.2 201.2C662 192.7 697 173.3 731.8 174C766.7 174.7 801.3 195.3 836.2 204.2C871 213 906 210 940.8 198.3C975.7 186.7 1010.3 166.3 1045.2 160.2C1080 154 1115 162 1132.5 166L1150 170L1150 0L1132.5 0C1115 0 1080 0 1045.2 0C1010.3 0 975.7 0 940.8 0C906 0 871 0 836.2 0C801.3 0 766.7 0 731.8 0C697 0 662 0 627.2 0C592.3 0 557.7 0 522.8 0C488 0 453 0 418.2 0C383.3 0 348.7 0 313.8 0C279 0 244 0 209.2 0C174.3 0 139.7 0 104.8 0C70 0 35 0 17.5 0L0 0Z" fill="#200d86"></path><path d="M0 143L17.5 141.3C35 139.7 70 136.3 104.8 139.3C139.7 142.3 174.3 151.7 209.2 157.2C244 162.7 279 164.3 313.8 154.8C348.7 145.3 383.3 124.7 418.2 115.3C453 106 488 108 522.8 108.3C557.7 108.7 592.3 107.3 627.2 118.5C662 129.7 697 153.3 731.8 165.3C766.7 177.3 801.3 177.7 836.2 174.7C871 171.7 906 165.3 940.8 159.7C975.7 154 1010.3 149 1045.2 149C1080 149 1115 154 1132.5 156.5L1150 159L1150 0L1132.5 0C1115 0 1080 0 1045.2 0C1010.3 0 975.7 0 940.8 0C906 0 871 0 836.2 0C801.3 0 766.7 0 731.8 0C697 0 662 0 627.2 0C592.3 0 557.7 0 522.8 0C488 0 453 0 418.2 0C383.3 0 348.7 0 313.8 0C279 0 244 0 209.2 0C174.3 0 139.7 0 104.8 0C70 0 35 0 17.5 0L0 0Z" fill="#2b158f"></path><path d="M0 94L17.5 95.5C35 97 70 100 104.8 104.3C139.7 108.7 174.3 114.3 209.2 119C244 123.7 279 127.3 313.8 121C348.7 114.7 383.3 98.3 418.2 97.7C453 97 488 112 522.8 120.5C557.7 129 592.3 131 627.2 124.7C662 118.3 697 103.7 731.8 104C766.7 104.3 801.3 119.7 836.2 123.5C871 127.3 906 119.7 940.8 111.5C975.7 103.3 1010.3 94.7 1045.2 98.5C1080 102.3 1115 118.7 1132.5 126.8L1150 135L1150 0L1132.5 0C1115 0 1080 0 1045.2 0C1010.3 0 975.7 0 940.8 0C906 0 871 0 836.2 0C801.3 0 766.7 0 731.8 0C697 0 662 0 627.2 0C592.3 0 557.7 0 522.8 0C488 0 453 0 418.2 0C383.3 0 348.7 0 313.8 0C279 0 244 0 209.2 0C174.3 0 139.7 0 104.8 0C70 0 35 0 17.5 0L0 0Z" fill="#200d86"></path><path d="M0 74L17.5 72.7C35 71.3 70 68.7 104.8 73C139.7 77.3 174.3 88.7 209.2 93.3C244 98 279 96 313.8 93C348.7 90 383.3 86 418.2 84.2C453 82.3 488 82.7 522.8 83C557.7 83.3 592.3 83.7 627.2 80C662 76.3 697 68.7 731.8 64.8C766.7 61 801.3 61 836.2 67.7C871 74.3 906 87.7 940.8 92.8C975.7 98 1010.3 95 1045.2 88C1080 81 1115 70 1132.5 64.5L1150 59L1150 0L1132.5 0C1115 0 1080 0 1045.2 0C1010.3 0 975.7 0 940.8 0C906 0 871 0 836.2 0C801.3 0 766.7 0 731.8 0C697 0 662 0 627.2 0C592.3 0 557.7 0 522.8 0C488 0 453 0 418.2 0C383.3 0 348.7 0 313.8 0C279 0 244 0 209.2 0C174.3 0 139.7 0 104.8 0C70 0 35 0 17.5 0L0 0Z" fill="#00006f"></path><path d="M0 31L17.5 34.8C35 38.7 70 46.3 104.8 45.2C139.7 44 174.3 34 209.2 32.7C244 31.3 279 38.7 313.8 43.7C348.7 48.7 383.3 51.3 418.2 50C453 48.7 488 43.3 522.8 42.2C557.7 41 592.3 44 627.2 45.8C662 47.7 697 48.3 731.8 49.7C766.7 51 801.3 53 836.2 50C871 47 906 39 940.8 37.5C975.7 36 1010.3 41 1045.2 41.8C1080 42.7 1115 39.3 1132.5 37.7L1150 36L1150 0L1132.5 0C1115 0 1080 0 1045.2 0C1010.3 0 975.7 0 940.8 0C906 0 871 0 836.2 0C801.3 0 766.7 0 731.8 0C697 0 662 0 627.2 0C592.3 0 557.7 0 522.8 0C488 0 453 0 418.2 0C383.3 0 348.7 0 313.8 0C279 0 244 0 209.2 0C174.3 0 139.7 0 104.8 0C70 0 35 0 17.5 0L0 0Z" fill="#000000"></path></svg>