<svg id="visual" viewBox="0 0 1150 700" width="1150" height="700" xmlns="http://www.w3.org/2000/svg" xmlns:xlink="http://www.w3.org/1999/xlink" version="1.1"><path d="M0 64L17.5 71C35 78 70 92 104.8 101.3C139.7 110.7 174.3 115.3 209.2 121.2C244 127 279 134 313.8 131.7C348.7 129.3 383.3 117.7 418.2 114.2C453 110.7 488 115.3 522.8 124.7C557.7 134 592.3 148 627.2 159.7C662 171.3 697 180.7 731.8 184.2C766.7 187.7 801.3 185.3 836.2 171.3C871 157.3 906 131.7 940.8 129.3C975.7 127 1010.3 148 1045.2 156.2C1080 164.3 1115 159.7 1132.5 157.3L1150 155L1150 0L1132.5 0C1115 0 1080 0 1045.2 0C1010.3 0 975.7 0 940.8 0C906 0 871 0 836.2 0C801.3 0 766.7 0 731.8 0C697 0 662 0 627.2 0C592.3 0 557.7 0 522.8 0C488 0 453 0 418.2 0C383.3 0 348.7 0 313.8 0C279 0 244 0 209.2 0C174.3 0 139.7 0 104.8 0C70 0 35 0 17.5 0L0 0Z" fill="#344c71"></path><path d="M0 190L17.5 194.7C35 199.3 70 208.7 104.8 205.2C139.7 201.7 174.3 185.3 209.2 192.3C244 199.3 279 229.7 313.8 230.8C348.7 232 383.3 204 418.2 198.2C453 192.3 488 208.7 522.8 222.7C557.7 236.7 592.3 248.3 627.2 257.7C662 267 697 274 731.8 269.3C766.7 264.7 801.3 248.3 836.2 234.3C871 220.3 906 208.7 940.8 215.7C975.7 222.7 1010.3 248.3 1045.2 255.3C1080 262.3 1115 250.7 1132.5 244.8L1150 239L1150 153L1132.5 155.3C1115 157.7 1080 162.3 1045.2 154.2C1010.3 146 975.7 125 940.8 127.3C906 129.7 871 155.3 836.2 169.3C801.3 183.3 766.7 185.7 731.8 182.2C697 178.7 662 169.3 627.2 157.7C592.3 146 557.7 132 522.8 122.7C488 113.3 453 108.7 418.2 112.2C383.3 115.7 348.7 127.3 313.8 129.7C279 132 244 125 209.2 119.2C174.3 113.3 139.7 108.7 104.8 99.3C70 90 35 76 17.5 69L0 62Z" fill="#253b5b"></path><path d="M0 344L17.5 372C35 400 70 456 104.8 450.2C139.7 444.3 174.3 376.7 209.2 356.8C244 337 279 365 313.8 368.5C348.7 372 383.3 351 418.2 351C453 351 488 372 522.8 403.5C557.7 435 592.3 477 627.2 501.5C662 526 697 533 731.8 517.8C766.7 502.7 801.3 465.3 836.2 446.7C871 428 906 428 940.8 417.5C975.7 407 1010.3 386 1045.2 387.2C1080 388.3 1115 411.7 1132.5 423.3L1150 435L1150 237L1132.5 242.8C1115 248.7 1080 260.3 1045.2 253.3C1010.3 246.3 975.7 220.7 940.8 213.7C906 206.7 871 218.3 836.2 232.3C801.3 246.3 766.7 262.7 731.8 267.3C697 272 662 265 627.2 255.7C592.3 246.3 557.7 234.7 522.8 220.7C488 206.7 453 190.3 418.2 196.2C383.3 202 348.7 230 313.8 228.8C279 227.7 244 197.3 209.2 190.3C174.3 183.3 139.7 199.7 104.8 203.2C70 206.7 35 197.3 17.5 192.7L0 188Z" fill="#172a46"></path><path d="M0 645L17.5 645C35 645 70 645 104.8 645C139.7 645 174.3 645 209.2 640.3C244 635.7 279 626.3 313.8 627.5C348.7 628.7 383.3 640.3 418.2 641.5C453 642.7 488 633.3 522.8 626.3C557.7 619.3 592.3 614.7 627.2 615.8C662 617 697 624 731.8 625.2C766.7 626.3 801.3 621.7 836.2 617C871 612.3 906 607.7 940.8 605.3C975.7 603 1010.3 603 1045.2 611.2C1080 619.3 1115 635.7 1132.5 643.8L1150 652L1150 433L1132.5 421.3C1115 409.7 1080 386.3 1045.2 385.2C1010.3 384 975.7 405 940.8 415.5C906 426 871 426 836.2 444.7C801.3 463.3 766.7 500.7 731.8 515.8C697 531 662 524 627.2 499.5C592.3 475 557.7 433 522.8 401.5C488 370 453 349 418.2 349C383.3 349 348.7 370 313.8 366.5C279 363 244 335 209.2 354.8C174.3 374.7 139.7 442.3 104.8 448.2C70 454 35 398 17.5 370L0 342Z" fill="#16253d"></path><path d="M0 701L17.5 701C35 701 70 701 104.8 701C139.7 701 174.3 701 209.2 701C244 701 279 701 313.8 701C348.7 701 383.3 701 418.2 701C453 701 488 701 522.8 701C557.7 701 592.3 701 627.2 701C662 701 697 701 731.8 701C766.7 701 801.3 701 836.2 701C871 701 906 701 940.8 701C975.7 701 1010.3 701 1045.2 701C1080 701 1115 701 1132.5 701L1150 701L1150 650L1132.5 641.8C1115 633.7 1080 617.3 1045.2 609.2C1010.3 601 975.7 601 940.8 603.3C906 605.7 871 610.3 836.2 615C801.3 619.7 766.7 624.3 731.8 623.2C697 622 662 615 627.2 613.8C592.3 612.7 557.7 617.3 522.8 624.3C488 631.3 453 640.7 418.2 639.5C383.3 638.3 348.7 626.7 313.8 625.5C279 624.3 244 633.7 209.2 638.3C174.3 643 139.7 643 104.8 643C70 643 35 643 17.5 643L0 643Z" fill="#142034"></path></svg>